<svg width="90" height="90" viewBox="0 0 90 90" fill="none" xmlns="http://www.w3.org/2000/svg">
<path d="M39.7593 29.9993C36.1258 31.7467 34.3079 34.603 34.3079 38.5705C34.3079 42.5402 36.1258 45.4772 39.7593 47.3814V29.9993ZM35.4931 25.4762L39.7593 23.8094V13.0943C33.1227 14.5236 27.6713 17.7787 23.4051 22.8573C18.9807 27.7769 16.7686 33.7293 16.7686 40.7144C16.7686 47.3814 18.9807 53.2531 23.4051 58.334C27.6713 63.5717 33.1227 66.6677 39.7593 67.6199V57.8568L39.0486 59.0486L35.2569 57.6194L36.4421 52.8566V52.6191L36.2037 52.3816L32.1759 49.2856L31.9375 49.0481L27.199 51.1898L25.301 47.8563L29.0949 45L29.331 44.7625L29.0949 44.5228L28.1458 39.0476V38.8102H27.9097L23.4051 37.6184L23.8796 33.5725L28.8565 33.8099V33.5725L31.4652 28.8097L31.7014 28.5722L31.4652 28.095L28.8565 24.999L31.9375 22.3801L35.4931 25.7136V25.4762ZM54.6921 38.5705C54.6921 34.603 52.8742 31.7467 49.2407 29.9993V47.3814C52.8742 45.4772 54.6921 42.5402 54.6921 38.5705ZM57.0625 22.3801L60.1435 24.999L57.5348 28.095L57.2986 28.5722L57.5348 28.8097L60.1435 33.5725V33.8099H60.3796L65.1204 33.5725L65.5949 37.6184L61.0903 38.8102H60.8542V39.0476L59.669 44.5228V44.7625L59.9051 45L63.699 47.8563L61.5648 51.1898L57.0625 49.0481L56.8241 49.2856L52.7963 52.3816L52.5579 52.6191V52.8566L53.7431 57.6194L49.9514 59.0486L49.2407 57.8568V67.6199C55.8773 66.6677 61.4066 63.5717 65.831 58.334C70.0972 53.2531 72.2314 47.3814 72.2314 40.7144C72.2314 33.7293 70.0972 27.7769 65.831 22.8573C61.4066 17.7787 55.8773 14.5236 49.2407 13.0943V23.8094L53.2686 25.4762L53.7431 25.7136V25.4762L57.0625 22.3801ZM44.7361 0L46.1597 3.09603L48.2917 8.57121C57.615 9.68238 65.3565 13.8896 71.5186 21.1906C77.8388 28.3325 81 36.9037 81 46.9042C81 56.5866 77.8388 65.1578 71.5186 72.6201C65.3565 79.762 57.6929 83.8886 48.5301 84.9997V86.1916L47.581 89.0479L44.7361 90L41.8935 89.0479L40.4699 86.1916V84.9997C31.1489 83.8886 23.4853 79.762 17.4814 72.6201C11.1612 65.1578 8 56.5866 8 46.9042C8 36.9037 11.2392 28.3325 17.7176 21.1906C23.8796 13.8896 31.6212 9.68238 40.9445 8.57121L43.0787 3.09603L44.7361 0Z" fill="black"/>
</svg>
