<svg width="90" height="90" viewBox="0 0 90 90" fill="none" xmlns="http://www.w3.org/2000/svg">
<path fill-rule="evenodd" clip-rule="evenodd" d="M32.773 85L13.3289 84.8822C13.0446 83.5815 13.0823 82.2329 13.4389 80.9494C13.7954 79.666 14.4605 78.4852 15.3782 77.5061L13.441 48.2059C13.441 48.2059 7.16505 43.1078 9.53453 38.159C11.84 33.3358 11.1355 27.57 11.1355 27.57C12.9878 25.2057 15.4231 23.3431 18.2119 22.1577L19.8129 25.5041L28.0981 21.1208C31.6339 21.6726 34.9222 23.245 37.5439 25.6376C37.5439 25.6376 39.4011 33.925 39.9454 37.6876C40.6979 43.2492 33.4214 47.7817 33.4214 47.7817L32.773 85ZM16.763 48.9443L18.9484 77.4982C18.9484 77.4982 15.6743 81.5751 17.6035 82.3449L22.1344 82.2664L20.8135 52.9976L23.8554 52.919L25.5285 82.1957L29.5309 82.1093L29.8111 55.4956L27.1535 55.417L25.9367 53.846L29.8592 51.2223V49.0935C25.5925 50.1697 16.795 48.9443 16.795 48.9443H16.763ZM17.7156 11.2389C17.7156 0.752096 31.8604 2.33101 30.6677 11.6631C29.555 20.6102 17.7476 21.8278 17.7476 11.1996L17.7156 11.2389Z" fill="black"/>
<path fill-rule="evenodd" clip-rule="evenodd" d="M54.7732 85L35.3292 84.8822C35.0448 83.5815 35.0826 82.2329 35.4391 80.9494C35.7957 79.666 36.4607 78.4852 37.3784 77.5061L36 48C36 48 39.1305 45.4488 41.5 40.5C42.5 34.5 38.7953 25.6376 38.7953 25.6376L50.0983 21.1208C53.6342 21.6726 56.9225 23.245 59.5442 25.6376C59.5442 25.6376 61.4014 33.925 61.9457 37.6876C62.6982 43.2492 55.4216 47.7817 55.4216 47.7817L54.7732 85ZM38.7633 48.9443L40.9487 77.4982C40.9487 77.4982 37.6746 81.5751 39.6038 82.3449L44.1346 82.2664L42.8138 52.9976L45.8557 52.919L47.5287 82.1957L51.5312 82.1093L51.8114 55.4956L49.1537 55.417L47.937 53.846L51.8594 51.2223V49.0935C47.5928 50.1697 38.7953 48.9443 38.7953 48.9443H38.7633ZM39.7159 11.2389C39.7159 0.752096 53.8607 2.33101 52.6679 11.6631C51.5552 20.6102 39.7479 21.8278 39.7479 11.1996L39.7159 11.2389Z" fill="black"/>
<path fill-rule="evenodd" clip-rule="evenodd" d="M76.6326 85L57.1885 84.8822C56.9042 83.5815 56.9419 82.2329 57.2985 80.9494C57.6551 79.666 58.3201 78.4852 59.2378 77.5061L57.8594 48C57.8594 48 60.9899 45.4488 63.3594 40.5C64.3594 34.5 60.6547 25.6376 60.6547 25.6376L71.9577 21.1208C75.4935 21.6726 78.7819 23.245 81.4036 25.6376C81.4036 25.6376 83.2607 33.925 83.8051 37.6876C84.5575 43.2492 77.281 47.7817 77.281 47.7817L76.6326 85ZM60.6227 48.9443L62.808 77.4982C62.808 77.4982 59.534 81.5751 61.4632 82.3449L65.994 82.2664L64.6732 52.9976L67.7151 52.919L69.3881 82.1957L73.3906 82.1093L73.6708 55.4956L71.0131 55.417L69.7964 53.846L73.7188 51.2223V49.0935C69.4522 50.1697 60.6547 48.9443 60.6547 48.9443H60.6227ZM61.5753 11.2389C61.5753 0.752096 75.7201 2.33101 74.5273 11.6631C73.4146 20.6102 61.6073 21.8278 61.6073 11.1996L61.5753 11.2389Z" fill="black"/>
</svg>
