<svg width="90" height="90" viewBox="0 0 90 90" fill="none" xmlns="http://www.w3.org/2000/svg">
<path fill-rule="evenodd" clip-rule="evenodd" d="M13.963 29.0814C15.6202 18.2479 23.4942 0.832372 36.5574 0.0660037C45.6629 -0.555114 58.1523 3.23193 64.1879 10.3962C65.4946 11.9444 68.5435 20.0324 68.5435 21.9543C68.5435 28.5284 80.8075 44.466 73.879 49.4482C66.6361 54.972 68.6693 68.0921 61.2479 74.4595C58.5098 77.1445 55.2725 88.1264 49.7874 88.1264C47.9556 88.1264 47.214 90.4704 45.0507 89.9148C41.0193 88.9266 31.0807 91.1062 28.663 86.3646C25.4785 80.1195 21.9268 73.6788 18.618 67.4393C16.3559 63.0918 16.3958 58.1037 13.7452 53.9593C9.92716 57.1683 8.73695 52.4414 5.90524 49.8219C5.2128 45.4084 3.10688 38.0425 9.33524 36.5821C12.229 35.9741 13.4137 31.7743 13.963 29.0814ZM53.1085 10.3695C48.5285 7.80328 44.0923 19.6612 37.728 13.8663C36.7207 12.9321 34.5702 12.158 34.1346 12.585C33.401 13.3044 37.6931 15.4592 37.9185 16.5089C38.1606 17.6956 38.5839 18.8523 38.953 20.0057C37.0187 21.6106 32.6102 24.9053 32.6102 27.6666C32.6102 28.7771 35.2231 27.2216 36.2715 26.5975C37.5543 25.8338 38.4826 25.1923 39.4538 23.9807C40.3898 22.8129 41.3133 21.6607 42.4102 21.6607C44.4087 21.6607 45.3578 25.3977 47.5552 25.3977C47.8421 25.3977 54.4537 28.1003 53.7074 25.9049C52.6793 22.7255 45.949 21.7608 45.949 18.7511C45.949 17.7179 53.719 10.8186 53.1085 10.3695ZM64.6235 38.8243C64.8772 37.2899 62.7836 34.8314 61.629 33.6993C60.1293 32.2832 45.949 34.9175 45.949 36.3419C45.949 36.4486 46.7657 37.116 47.7457 37.81C50.2476 39.5818 55.8659 46.8157 59.2335 45.0438C62.5957 43.0657 63.9671 43.3004 64.6235 38.8243ZM32.093 34.3399C30.8135 34.3132 29.7519 34.2331 29.7519 34.2064C29.7519 32.6022 18.7868 35.7657 17.7469 37.7566C15.9535 41.003 21.5335 47.2266 24.3891 47.9267C26.8806 48.7244 38.3206 37.6139 37.0746 35.7813C36.6118 35.0606 34.3796 34.3933 32.093 34.3399ZM46.9563 60.766C44.5214 59.1194 45.6164 63.4143 45.8946 64.2895C46.5041 66.1253 43.1165 66.8307 42.8729 65.5174C42.7015 64.4243 43.9281 62.0149 42.9274 61.3799C40.1493 59.3988 40.7601 65.1367 40.8313 65.9978L36.8296 65.8377L37.0202 62.9548C36.1501 63.1358 27.9824 69.1054 27.9824 70.162C27.9824 71.7295 32.7024 70.2274 33.6991 70.0819C33.6991 72.7133 32.8409 75.0544 36.0946 75.3938C39.2066 75.7659 34.9376 69.7094 36.6391 69.8683C37.9727 70.0863 39.4486 69.9377 40.8041 69.9751C40.7262 71.088 39.6936 77.326 41.9746 76.1145C44.4625 74.8417 40.7796 68.6411 45.5679 69.815C48.0765 70.4858 42.8534 76.4376 46.0852 76.1679L46.1076 76.1666C52.0358 75.8247 46.1969 70.4478 51.9107 69.3879C52.2707 70.6676 53.2188 75.1773 55.014 73.2317C56.2814 71.8705 53.7063 69.6852 55.2318 68.9074C56.026 68.4921 58.0564 69.7335 57.8724 68.5604C57.5465 66.0044 52.8817 64.5185 50.5496 65.7042C48.5437 66.8844 48.0175 61.5093 46.9563 60.766ZM50.2774 48.7274C50.6292 47.0027 44.57 39.4028 43.1724 38.4239C41.4373 37.4517 30.5482 50.7561 39.0346 50.7561C40.6341 50.7561 41.2777 46.8708 41.8657 45.6311L42.6824 45.1506C43.671 45.1506 44.1776 49.6571 44.5879 50.596C45.3103 52.6325 50.2774 50.3098 50.2774 48.7274Z" fill="black"/>
</svg>
