<svg width="90" height="90" viewBox="0 0 90 90" fill="none" xmlns="http://www.w3.org/2000/svg">
<g clip-path="url(#clip0_25_901)">
<path d="M6.9079 45C6.9079 50.9079 8.27295 56.7416 11.0003 62.5012V27.4988C8.27295 33.2584 6.9079 39.0921 6.9079 45ZM18.9544 32.5003L17.1362 32.0444H15.9991L14.6368 31.5912L15.5459 31.3632H14.1808V67.5C19.7866 75.8331 27.5897 81.0599 37.59 83.183H41.6824V82.7271L41.4544 81.3647L41.9103 80.9088V79.3185L40.0921 75.91L39.8641 74.545L39.6362 73.8638L39.4082 68.6371L40.0921 67.0468V64.0915L40.3173 62.5012V61.5921L39.6362 58.8647L38.955 60.2271L38.0459 61.3641V61.5921L37.59 61.8173L37.3647 62.2733L35.3185 64.5447L34.1815 66.5909L33.7283 67.728L31.2261 71.8176L30.0918 73.4079L29.4079 75.2261L28.9547 76.8192L28.7267 78.6374L28.4988 78.8626V79.0906L26.4553 78.4094L24.1812 76.8192V76.5912H24.4091L25.5462 76.3632L26.4553 75.91L27.1365 74.545L29.1827 66.8188L32.1353 62.5012L33.5003 61.3641V60.9082L34.8626 59.5459L35.3185 58.1808V57.7277L36.2277 55.0003L36.6808 53.6353L36.9088 52.2729L37.8179 50.9079L39.4082 48.1805L40.3173 44.5468V42.7286L41.0012 41.1356L40.0921 38.4082L39.6362 37.2739V36.1368L38.7271 34.9997V34.0906C38.4249 33.4836 38.0459 33.1815 37.59 33.1815L36.9088 33.4094H34.6374L33.2723 32.9535L32.1353 33.1815L29.8638 32.9535L28.9547 33.1815H28.0456L26.4553 33.4094L24.4091 32.9535L23.272 32.7283L22.5909 32.5003H21.2286L20.3195 32.0444C20.1656 32.3492 19.7125 32.5003 18.9544 32.5003ZM19.4103 23.6371L18.7264 22.9532H18.2733L17.8173 22.728H17.3641L16.9082 22.5L15.7739 21.5909H16.683H16.2271C15.7739 21.5909 15.3948 21.4398 15.09 21.1377L14.1808 22.728V29.7729L15.7739 29.545L16.9082 29.317H16.2271L15.3179 29.0918L14.8647 28.6359L16.9082 28.4079L17.5921 28.8638H18.5012L20.5447 29.7729H21.6818L22.3629 30.0009L23.9532 29.7729H26.9085L28.2736 29.545L29.4079 30.0009L32.1353 29.7729H33.7283L32.3632 29.545L28.7267 28.1827L28.0456 27.7267L27.1365 27.4988L23.0468 25.2274L20.7726 23.8623L19.4103 23.6371ZM19.6356 19.7726L20.0915 20.0006L21.6818 21.5909L22.3629 22.0468L24.1812 22.728L27.8176 23.4091L28.0456 23.6371L30.0918 24.7714L31.6821 25.6805H32.3632L33.2723 26.1365L36.2277 27.0456L39.6362 27.4988L41.4544 28.1827L42.8195 27.9547L43.7286 26.5897V26.1365L43.2726 24.7714H43.0447L42.3635 23.6371V22.5H42.8195C42.6656 20.8328 43.1957 19.6957 44.4097 19.0915H18.7264L19.6356 19.7726ZM80.9997 62.2733C83.7271 56.8185 85.0921 51.0617 85.0921 45C85.0921 38.9383 83.7271 33.1815 80.9997 27.7267V62.2733ZM72.3644 16.1362C64.9404 9.31915 56.1514 5.9079 46 5.9079C35.8486 5.9079 27.0596 9.31915 19.6356 16.1362H72.3644ZM53.7261 33.1815L52.5918 33.6374L51.6827 38.6362L51.2267 39.5453L50.5456 44.0909L49.8644 43.8629L50.0897 45.9091L50.5456 46.8182V48.6365H50.7736V48.4085L50.9988 48.6365L51.9079 49.9988L53.5009 54.0912L55.3192 59.5459L54.8632 60.455L55.3192 61.5921L56.4535 62.7264L57.1374 62.5012L58.2717 65.9097L60.5459 71.1365L62.3641 74.7729H61.9082V75.2261L62.3641 74.7729L63.9544 76.1353H66.4538L68.9532 74.7729L69.4091 75.4541L68.728 76.3632L66.0006 77.9535H64.1824L62.8173 78.6374L61.9082 79.9997L61.2271 79.5465L61.683 77.5003L60.7739 75.91L60.9991 75.6821L60.5459 75.2261H60.3179L57.5906 71.5897L56.4535 70.4553C55.0912 68.9392 54.4842 67.8021 54.6353 67.0468L55.0912 66.3629L54.41 65.0006L53.045 63.8635H52.817V64.3195H52.5918L50.5456 59.7739L50.3176 62.9544L50.0897 63.1824L49.6365 62.9544V63.8635L50.3176 65.2286L49.8644 66.8188L50.3176 66.5909L50.0897 67.0468L48.9553 75.2261V78.1815H48.7274L48.9553 78.6374L49.8644 79.9997L51.9079 80.6808L54.41 81.1368V82.0459L52.5918 82.7271L50.5456 82.955L48.9553 82.2739L47.5903 82.955H46.9091V82.7271L47.1371 81.3647V79.0906L47.3623 78.8626L46.4532 75.91V75.6821C45.5468 71.8945 45.5468 69.5462 46.4532 68.6371L47.1371 68.4091V66.5909L46.6812 65.2286L46.4532 64.3195H46.228V64.0915L46 59.3179L45.5468 56.3626L45.0909 57.9556L44.4097 60.455L44.6377 62.2733L44.4097 63.6356V64.3195L43.9538 65.0006V65.6818L43.7286 66.3629L43.5006 66.8188L43.0447 68.6371L43.5006 69.9994L43.7286 72.7267L43.5006 73.8638L43.7286 74.545V74.7729L44.1818 78.6374L44.8629 79.7717V80.6808L45.3188 81.3647L46.4532 82.2739L46.6812 82.955V83.183H54.41C64.4103 81.0599 72.3644 75.7562 78.2723 67.272L78.0444 31.8192L74.8638 31.5912V31.8192L77.1353 32.0444L76.91 32.5003H72.3644V32.9535H71.4553V32.2723L67.3629 32.5003L66.9097 32.9535L65.3195 33.1815L63.5012 32.7283V32.2723H63.2733L62.1362 32.9535L61.683 32.7283H61.455L53.7261 33.1815ZM61.9082 27.9547H61.683L55.5444 30.2261L61.683 30.6821L62.1362 30.4541L62.8173 30.6821L63.2733 31.1353L63.5012 30.91V30.4541L66.2286 30.0009L70.9994 30.2261H71.2274V30.4541H71.4553V29.317L72.1365 29.0918V29.545L73.2736 29.0918L75.0918 28.6359L77.1353 29.545V30.0009L78.0444 30.2261V22.728L76.91 21.1377L74.4079 22.0468L76.4541 21.5909V22.272L72.5897 23.4091L72.8176 23.6371L72.1365 24.0903L71.6805 23.4091L67.3629 25.6805L66.9097 26.1365L65.5447 27.0456L64.1824 27.4988H63.5012V26.8176L63.2733 27.0456L61.9082 27.9547ZM61.455 25.6805H62.8173L62.5921 25.2274V24.9994L62.8173 24.5462L66.0006 23.4091C68.272 22.8021 69.6371 22.1979 70.0903 21.5909H70.3182L70.5462 22.0468H70.7714L70.0903 21.1377L70.3182 20.6818L70.9994 20.9097L71.9085 20.0006L73.4988 19.0915H47.5903L48.4994 19.5447L49.1805 22.728H49.6365V23.6371L49.1805 24.3182L48.9553 24.7714L48.4994 26.1365L48.0462 26.8176L49.1805 28.6359C50.0897 27.4246 51.3037 26.8176 52.817 26.8176L54.6353 27.2736L60.9991 26.1365L61.2271 25.9085V25.6805H61.455ZM80.5465 16.1362L80.9997 16.8173C87.6656 24.9994 91 34.3927 91 45C91 57.4255 86.6055 68.0301 77.8192 76.8192C69.0301 85.6055 58.4255 90 46 90C33.5745 90 22.9699 85.6055 14.1808 76.8192C5.39453 68.0301 1 57.4255 1 45C1 34.3927 4.33435 24.9252 11.0003 16.5921L11.4535 16.1362C15.697 11.1374 20.7726 7.19604 26.6805 4.31763C32.7422 1.43921 39.183 0 46 0C52.817 0 59.2578 1.43921 65.3195 4.31763C71.2274 7.19604 76.303 11.1374 80.5465 16.1362Z" fill="black"/>
</g>
<defs>
<clipPath id="clip0_25_901">
<rect width="90" height="90" fill="white"/>
</clipPath>
</defs>
</svg>
