<svg width="90" height="90" viewBox="0 0 90 90" fill="none" xmlns="http://www.w3.org/2000/svg">
<path d="M34.4004 3C39.8309 3 44.4507 6.46364 46.1758 11.3018C48.2161 9.85372 50.708 9 53.4004 9C60.3039 9 65.9004 14.5964 65.9004 21.5C65.9004 22.1031 65.856 22.696 65.7734 23.2764C66.6205 23.0952 67.4993 23 68.4004 23C75.3039 23 80.9004 28.5964 80.9004 35.5C80.9004 38.3287 79.9591 40.9365 78.375 43.0312C82.8029 44.9545 85.9004 49.3647 85.9004 54.5C85.9004 61.4036 80.3039 67 73.4004 67C69.7734 67 66.509 65.4537 64.2256 62.9863L61.0273 66.1797C64.6661 70.0683 64.5874 76.1696 60.791 79.96L53.7773 86.9629L2 35.1035L9.01367 28.1006C12.6806 24.4394 18.498 24.2506 22.3896 27.5264L25.5723 24.3486C23.3042 22.0858 21.9004 18.957 21.9004 15.5C21.9004 8.59644 27.4968 3 34.4004 3ZM39.9424 33.0137C36.0748 29.1403 29.7995 29.1356 25.9258 33.0029L21.9004 37.0215L50.249 65.4141L54.2734 61.3955C58.147 57.5278 58.1518 51.2526 54.2842 47.3789L39.9424 33.0137ZM74.4004 48C70.2583 48 66.9004 51.3579 66.9004 55.5C66.9004 59.6421 70.2583 63 74.4004 63C78.5425 63 81.9004 59.6421 81.9004 55.5C81.9004 51.3579 78.5425 48 74.4004 48ZM68.4004 28C64.2583 28 60.9004 31.3579 60.9004 35.5C60.9004 39.6421 64.2583 43 68.4004 43C72.5425 43 75.9004 39.6421 75.9004 35.5C75.9004 31.3579 72.5425 28 68.4004 28ZM52.4004 14C48.2583 14 44.9004 17.3579 44.9004 21.5C44.9004 25.6421 48.2583 29 52.4004 29C56.5425 29 59.9004 25.6421 59.9004 21.5C59.9004 17.3579 56.5425 14 52.4004 14ZM34.4004 7C30.2583 7 26.9004 10.3579 26.9004 14.5C26.9004 18.6421 30.2583 22 34.4004 22C38.5425 22 41.9004 18.6421 41.9004 14.5C41.9004 10.3579 38.5425 7 34.4004 7Z" fill="black"/>
</svg>
