<svg width="90" height="90" viewBox="0 0 90 90" fill="none" xmlns="http://www.w3.org/2000/svg">
<path d="M22.7779 58.1056L25.6105 55.7653L33.875 67.4694L33.6389 67.7021L32.6947 68.1701L31.2784 68.4055H30.5703L29.1539 69.1063L16.4019 86.6597C16.088 87.2829 15.5381 87.6734 14.7495 87.8311L13.8053 88.5319H13.5692L12.1529 87.8311L2.94421 81.9791L2 80.575V80.3396L2.47211 79.1708L19.9453 64.6584L20.6534 63.4896L21.8337 59.277L22.7779 58.1056ZM45.6803 31.6591L46.8605 32.1271L86.2918 87.5958L86.0558 89L84.6395 88.5319L52.5284 60.6812L49.6932 75.8944L48.749 76.5952L47.8047 75.8944L7.43182 20.4257V19.0215L9.0842 19.4896L41.4313 48.2764L44.9721 32.1271L45.6803 31.6591ZM46.3884 12.2334L58.4297 12.4687L48.985 19.7223L52.2924 31.191L42.3755 24.1701L32.2226 31.191L35.7634 19.7223L26.0826 12.4687L38.36 12.2334L42.3755 1L46.3884 12.2334ZM82.751 12.4687L83.4592 12.2334L87 14.5737V15.7451L71.4179 28.1499L73.7784 29.7868L73.5424 30.723L73.3063 30.9583L72.5981 30.723L72.3621 30.4902L59.8461 40.5522L55.125 33.7666L82.751 12.4687Z" fill="black"/>
</svg>
