<svg width="90" height="90" viewBox="0 0 90 90" fill="none" xmlns="http://www.w3.org/2000/svg">
<path d="M86.0144 9.02307C85.1664 9.11961 84.399 9.35905 83.482 9.81474C82.2196 10.4365 81.1722 11.2204 79.8407 12.5373C78.7319 13.634 77.93 14.5647 76.8633 15.9936C75.3515 18.021 74.4729 19.3997 71.6182 24.2385C67.5856 31.0739 63.9904 37.4574 61.7573 41.7517C61.5232 42.1958 60.2608 44.7176 58.9448 47.3513C55.8177 53.6152 55.4647 54.2948 54.3289 56.2528C53.5616 57.5735 52.1687 59.7979 52.1342 59.7593C52.1265 59.7515 52.1726 59.4928 52.234 59.1761C52.7711 56.4304 53.4157 51.6534 53.9568 46.3936C55.0503 35.8007 56.6196 26.9997 58.6992 19.7627C58.8373 19.2877 58.9448 18.8938 58.9371 18.8899C58.9026 18.8591 48.9496 20.5351 48.9073 20.5775C48.846 20.6432 46.9045 23.7365 45.7764 25.5708C43.2594 29.6643 41.2181 33.2017 37.9682 39.1064C36.9898 40.8828 36.6023 41.6166 35.4627 43.8564C33.3984 47.9113 32.8766 48.8227 31.0502 51.58C26.4037 58.6007 22.0296 64.2003 18.0238 68.2475C16.6387 69.6493 15.6564 70.5452 14.4325 71.53C12.1687 73.3566 10.0583 74.4418 8.78064 74.4418C8.23964 74.4418 7.85211 74.2448 7.67177 73.8818C7.47225 73.4763 7.48376 72.4452 7.70247 71.333C7.85978 70.5221 9.24108 66.3822 9.73988 65.2314C10.8948 62.5513 12.3912 59.7515 14.1792 56.9093C14.5974 56.245 15.0233 55.5847 15.0732 55.5229C15.0809 55.5152 15.1269 55.5345 15.1768 55.5692C15.2612 55.6233 15.2727 55.6619 15.2881 56.0133C15.3034 56.3377 15.3265 56.4343 15.4262 56.6505C15.5912 57.0097 15.7639 57.1217 16.1514 57.1217C16.4162 57.1178 16.4392 57.1101 16.5696 56.9865C16.8881 56.6775 17.6363 55.7044 18.561 54.3991C19.1327 53.5843 23.6718 46.6601 24.0056 46.0847C24.2972 45.5865 24.7922 44.5477 24.9649 44.0843C25.6018 42.3503 25.6478 40.9408 25.1068 39.7784C24.5044 38.4847 23.3073 37.72 21.8953 37.7162C21.2085 37.7162 20.679 37.8552 19.927 38.2336C17.2488 39.5891 14.0027 42.8408 10.7989 47.3822C7.55282 51.9739 4.52164 57.7164 2.57248 62.953C1.72068 65.2391 1.1413 67.1855 0.607966 69.5373C0.404608 70.4487 0.159044 72.0475 0.0631205 73.1095C-0.0558246 74.4765 -0.00210742 76.3688 0.185903 77.2995C0.465999 78.6859 1.24106 79.7363 2.42667 80.3387C3.48183 80.8755 4.86313 81.0802 6.70486 80.9721C7.99024 80.8987 9.07609 80.5936 10.6185 79.883C15.6756 77.5428 21.6229 72.1286 26.8641 65.1001C29.1087 62.0918 30.9159 59.3074 33.0723 55.5383C34.3078 53.3796 41.4138 40.9369 42.5764 38.894C43.1788 37.8359 43.6738 36.9863 43.6738 37.0095C43.6738 37.0365 43.597 37.5038 43.4973 38.0521C42.4459 44.0572 41.3524 52.3948 40.7001 59.4001C40.2282 64.4552 39.8637 66.3552 38.2944 71.893C38.0642 72.7117 37.738 73.8471 37.5692 74.4186C37.4004 74.9863 37.2661 75.4613 37.2738 75.4652C37.2814 75.469 39.2958 75.1717 41.7553 74.8009C45.2584 74.2757 46.2368 74.1174 46.2944 74.0633C46.3366 74.0286 46.7011 73.5883 47.1078 73.0902C51.4474 67.757 55.4148 61.8369 59.0867 55.2101C60.7635 52.1863 61.5462 50.6686 64.3587 45.0111C65.6211 42.47 66.7798 40.1491 66.9371 39.8556C67.482 38.8322 68.6791 36.8318 72.0633 31.3056C73.2105 29.4249 74.588 27.1735 75.1175 26.3046C76.4719 24.084 76.8671 23.4816 77.6805 22.4235C78.4441 21.4271 79.4187 20.3883 80.1247 19.8129C81.6288 18.5849 83.5818 17.909 86.187 17.7121C86.4902 17.6889 86.7511 17.6619 86.7664 17.6503C86.7818 17.6426 87.0273 17.3221 87.3113 16.9475C88.846 14.8969 89.671 13.3444 89.9511 11.9773C90.0163 11.6684 90.0163 10.9462 89.9511 10.6836C89.8743 10.367 89.6595 9.94604 89.4561 9.72206C89.2528 9.49807 88.9074 9.27795 88.6235 9.19299C88.14 9.0501 86.6398 8.95355 86.0144 9.02307Z" fill="black"/>
</svg>
