<svg width="90" height="90" viewBox="0 0 90 90" fill="none" xmlns="http://www.w3.org/2000/svg">
<path d="M43.2471 0.185018C40.8274 0.836129 39.0935 2.69371 38.1599 5.65243C37.6645 7.19403 37.3311 9.2527 37.2549 11.1486L37.2359 11.7231L31.1198 11.7518L24.9942 11.771V13.686V15.601H26.0898H27.1853V19.096V22.5909L26.4042 22.9835C24.6132 23.8835 22.9365 25.1092 21.517 26.555C20.3072 27.7806 19.4117 29.0158 18.6781 30.4425C17.5635 32.6065 17.3253 33.497 16.668 37.8728C16.0678 41.8944 14.696 51.0387 13.5624 58.5935C13.1432 61.4086 12.6192 64.8748 12.4001 66.3015C12.0191 68.7336 12 69.0113 12 70.9454C12 73.8467 12.3239 75.4553 13.3242 77.514C14.4769 79.8982 16.3727 81.7366 18.9163 82.9431L19.7546 83.3453L19.7737 86.6487L19.8023 89.9521L45.0286 89.9808L70.2454 90V86.6774L70.2549 83.3453L71.179 82.8952C74.8562 81.1143 77.0664 78.1364 77.8285 73.9616C77.9714 73.2147 78 72.5445 78 70.8497V68.6953L77.1617 63.2374C76.7044 60.2308 76.209 56.937 76.0566 55.9124C75.9042 54.8879 75.4469 51.8909 75.0563 49.2577C74.6657 46.6245 74.056 42.5934 73.713 40.3049C72.8557 34.5694 72.8366 34.4162 72.6175 33.6023C72.3317 32.5778 71.6648 30.9787 71.1028 29.9733C69.4928 27.1008 66.9492 24.7357 63.5863 22.9643L62.8147 22.5526V19.0768V15.6106L63.9388 15.5819L65.0534 15.5531L65.082 13.6573L65.101 11.771H58.9659H52.8308L52.7737 11.0241C52.3831 6.02586 51.3733 3.27779 49.2393 1.44894C48.6582 0.941454 47.4578 0.357372 46.61 0.146718C45.7431 -0.0639354 44.095 -0.0447857 43.2471 0.185018ZM31.9296 34.5311L31.9486 36.3791H45.0476H58.1466V34.512V32.6448L61.0713 32.664L63.996 32.6927L64.5961 35.7089C64.92 37.3654 65.9203 42.4976 66.8158 47.1033C67.7113 51.7089 68.864 57.6551 69.388 60.317C70.6074 66.5792 70.6074 66.5696 70.7693 67.9771C71.2838 72.3817 70.5026 75.3404 68.5401 76.3937L67.9781 76.6905H63.9197H59.8614V72.8796V69.0591L57.5084 69.0017C56.2032 68.9634 54.2027 68.9347 53.0499 68.9347C51.8972 68.9347 50.6683 68.9059 50.3158 68.8772L49.6775 68.8102L49.6204 68.274C49.3536 65.7653 48.5629 64.4056 47.1244 63.9556C46.3051 63.7066 43.7997 63.6779 42.9994 63.9173C41.4752 64.3673 40.6273 65.7461 40.4368 68.0633L40.3796 68.791L39.8557 68.8581C39.5699 68.8868 38.3219 68.9155 37.093 68.9251C35.864 68.9347 33.7968 68.9634 32.5012 69.0017L30.1386 69.0591V72.8796V76.6905H26.0898H22.0315L21.5456 76.4416C19.8023 75.5511 18.983 73.3105 19.1163 69.7964C19.183 68.025 19.3831 66.6558 20.0785 63.1225C20.3643 61.6575 20.974 58.5648 21.4218 56.2476C21.8695 53.9304 22.4697 50.8472 22.7555 49.4013C23.0413 47.9555 23.6986 44.5467 24.2321 41.837C25.823 33.6885 25.9564 32.9895 26.004 32.8076C26.0517 32.6544 26.2517 32.6448 28.9763 32.664L31.901 32.6927L31.9296 34.5311Z" fill="black"/>
</svg>
