<svg width="90" height="90" viewBox="0 0 90 90" fill="none" xmlns="http://www.w3.org/2000/svg">
<path fill-rule="evenodd" clip-rule="evenodd" d="M65.9708 68.5595C65.9708 79.304 65.9708 89.6852 65.9708 89.6852L59.5755 89.7336C59.5755 88.2806 59.5755 86.997 59.5755 86.1252C59.6239 82.646 57.153 79.1344 52.1304 79.0941L37.103 79.0295C32.258 79.0295 29.7629 82.3554 29.666 85.7539C29.666 86.7306 29.6175 88.2563 29.6095 89.9516L22.5439 90C22.5439 90 22.6812 79.5058 22.8265 68.7129C13.718 64.1923 13.6373 50.8566 23.1092 45.9162V45.6175C23.093 34.4937 28.9877 27.6724 36.4166 24.9359C37.1434 22.837 39.5416 21.3598 40.8659 20.6817L41.8349 11.14C36.4651 8.98466 37.5552 0 44.2573 0C50.9595 0 51.7589 9.29949 46.4699 11.245L47.2774 20.5848C48.642 21.2952 50.9192 22.7321 51.5813 24.7018C59.5109 27.2769 66.0031 34.1788 66.0031 45.1413V45.7225C75.3215 50.5175 75.3538 64.2892 65.9708 68.5595ZM58.0089 48.6205C54.6013 48.6205 35.2377 48.6205 30.9822 48.6205C17.8685 48.7174 17.9251 65.7099 30.1747 65.6211C33.9376 65.6211 55.4976 65.3951 58.9375 65.3709C70.7269 65.2982 70.3312 48.5398 58.0089 48.6205ZM51.4279 54.3439H57.8878L58.0977 60.4709L51.2583 60.6081L51.4279 54.3439ZM29.7467 53.7869H37.3937L37.6359 60.9956L29.561 61.1651L29.7467 53.7869Z" fill="black"/>
</svg>
