<svg width="90" height="90" viewBox="0 0 90 90" fill="none" xmlns="http://www.w3.org/2000/svg">
<path fill-rule="evenodd" clip-rule="evenodd" d="M26.1475 60.0159L13.0162 16.6986C13.0162 16.6986 10.0181 16.4102 8.34551 16.3651C4.92924 16.284 3.28338 7.20776 7.57151 6.96441C8.87041 6.8923 19.7242 6 19.7242 6L23.9678 23.4585L82 26.6131L74.9628 58.3936L26.1475 60.0159ZM27.1706 65.2075C39.1009 65.2075 39.3944 83.6755 27.998 83.6755C14.4752 83.7026 15.4627 65.2075 27.1706 65.2075ZM67.4364 65.541C79.3666 65.541 79.6691 84 68.2637 84C54.741 84 55.7374 65.541 67.4364 65.541Z" fill="black"/>
</svg>
