<svg width="90" height="90" viewBox="0 0 90 90" fill="none" xmlns="http://www.w3.org/2000/svg">
<g clip-path="url(#clip0_24_39)">
<path fill-rule="evenodd" clip-rule="evenodd" d="M34.0345 56.7039L22.9278 47.8193L27.0725 42.638L31.2012 45.8735L33.0019 43.3286L29.4616 39.6234L31.8207 36.6744L35.7445 39.4662L37.6175 36.7888L34.566 33.2284L36.8923 30.3203L40.3056 33.0507L42.4311 30.0156L39.7087 26.8415L47.0425 17.6736L64.1705 6.14196C67.6072 16.5819 62.0825 27.7007 58.1071 32.6704C55.5077 35.9198 40.8074 54.2967 40.8074 54.2967C40.8074 54.2967 37.0434 52.9425 34.0345 56.7039ZM36.1046 66.7111C30.5083 62.9733 25.4283 65.7832 24.8633 70.268C19.0351 72.3899 13.8543 79.8321 14.6313 83.7448L12.6066 85.3941L0.474654 76.1259L16.4842 56.6582L13.6483 48.434L15.7029 46.9431L38.0487 64.3928C37.0548 65.6352 37.2077 65.4441 36.1319 66.733L36.1046 66.7111Z" fill="black"/>
</g>
<defs>
<clipPath id="clip0_24_39">
<rect width="90" height="90" fill="white"/>
</clipPath>
</defs>
</svg>
