<svg width="90" height="90" viewBox="0 0 90 90" fill="none" xmlns="http://www.w3.org/2000/svg">
<path fill-rule="evenodd" clip-rule="evenodd" d="M82.5515 41.1082L70.3501 41.618V36.8281L72.9442 28.5289L75.4012 28.6474L75.443 36.6088L82.3309 36.9763L82.4501 36.1286L89.7555 36.0041L90 42.0922L82.6947 42.2167L82.5515 41.1082ZM52.1374 43.5683C48.1657 41.9144 48.4281 34.1724 52.2746 32.7318L67.4459 32.9156L67.4101 43.5268L52.1374 43.5683ZM46.5257 43.6928H46.2991L44.1463 45.5364L49.3882 63.3739L37.8428 66L36.0299 53.3792H29.7622L28.5695 58.2343C25.5722 58.241 22.6595 57.2473 20.298 55.4125L25.54 43.3786L23.6794 40.1182C16.6424 40.1182 9.87972 45.1985 6.72501 49.4904L1 49.2059L1.54865 32.2339L24.5978 32.4769C25.1285 30.8289 25.5639 29.4655 25.7129 29.009C26.5777 26.3414 28.6172 25.1024 31.7123 25.0017C33.1793 24.9483 42.1246 26.1873 43.9197 26.5074C46.639 26.9579 47.7602 28.2858 47.629 30.4199C47.5097 31.896 46.5496 43.6928 46.5496 43.6928H46.5257ZM31.5692 46.473H31.4678L30.6031 49.9172L35.5647 50.3322L34.9684 46.3841L31.5692 46.473ZM43.2756 30.4673L34.1454 29.2047L32.6008 34.0479H43.3352L43.2756 30.4673Z" fill="black"/>
</svg>
