<svg width="90" height="90" viewBox="0 0 90 90" fill="none" xmlns="http://www.w3.org/2000/svg">
<path fill-rule="evenodd" clip-rule="evenodd" d="M75.2308 32.5609L76.9009 59.8279L69.7314 59.1024V38.356C67.5425 39.9846 64.9424 40.9766 62.2206 41.2213C63.6108 44.1845 64.544 47.3395 64.9887 50.5797L6.02768 51.2134C7.19952 37.5937 17.1002 24.9107 35.1668 24.9107C40.7392 24.7981 46.2396 26.1779 51.0927 28.9057C54.1654 34.6548 61.5932 38.1447 67.7015 32.8364L67.7845 32.7446L52.0985 16.6176C51.0127 17.8829 50.2386 19.3829 49.8379 20.9984L24.2512 19.0698L20.6711 5.66124L53.6856 5L55.7893 7.5072C69.5284 2.73157 84.2456 18.7575 75.2308 32.5609ZM59.8308 12.3563L71.909 26.7567C74.2435 19.1065 67.3139 11.5573 59.8308 12.3196V12.3563ZM37.7965 84C17.8199 84 7.40252 71.0048 6 57.2013H65.2009C64.4166 70.9772 55.1896 84 37.7965 84Z" fill="black"/>
</svg>
