<svg width="90" height="90" viewBox="0 0 90 90" fill="none" xmlns="http://www.w3.org/2000/svg">
<path fill-rule="evenodd" clip-rule="evenodd" d="M90 40.4767L89.7842 60.3361H75.1635V58.556L63.7107 58.2908L63.5714 54.6051L75.1218 54.8006V52.483L63.5157 52.2527L63.3835 48.7625L75.08 48.6927V46.075L63.3208 46.2076L63.1816 42.508L75.0173 42.3125V40.4976L90 40.4767ZM55.5231 60.4617V58.1023L48.9995 57.9487L48.8672 54.3468L55.4535 54.4585V52.0852L48.8046 51.9525L48.6932 48.8253L55.4187 48.7904V46.2774L48.6305 46.3542L48.4983 42.7314L55.3769 42.6197V40.5953H60.4663L60.2435 60.4617H55.5231ZM39.9487 67.7702C43.5342 67.7702 43.2627 73.0824 39.7259 73.0824L39.7676 75.0509C43.395 75.016 43.388 79.7208 39.8164 79.7208L25.2862 80L25.2445 76.1677C28.1686 76.2026 32.2902 76.2515 34.2396 76.2515C37.4423 76.2515 38.4657 72.3983 33.7314 72.3983C31.0509 72.3983 27.6534 72.4402 25.2027 72.4751L25.1609 68.7685C28.092 68.8103 32.2693 68.8592 34.2118 68.8592C37.4144 68.8592 38.4379 65.006 33.7036 65.006C28.9692 65.006 21.9583 65.1316 21.9583 65.1316V65.1875L15.4138 65.2992L15.191 62.8071L3.04893 61.6903C3.04893 61.6903 -2.52084 46.061 4.70594 40.351C6.59128 41.2055 8.34873 42.3191 9.9276 43.6598L8.51427 56.071L14.084 55.373L15.6714 45.1536C15.6714 45.1536 23.9356 44.0786 24.8267 36.5886L39.8512 35.8277C39.9974 30.3829 45.7064 30.7878 45.7064 30.7878L46.2564 64.9292L39.8999 65.0688L39.9487 67.7702ZM33.7314 50.3191C28.9901 50.3191 24.9033 50.4448 24.9033 50.4448L25.0078 54.0397C25.0078 54.0397 31.037 54.1653 34.2396 54.1653C37.4423 54.1653 38.4518 50.3191 33.7175 50.3191H33.7314ZM33.7314 57.6625C28.9901 57.6625 25.1052 57.7882 25.1052 57.7882V61.3831C25.1052 61.3831 31.0649 61.5158 34.2675 61.5158C37.4701 61.5158 38.4518 57.6625 33.7175 57.6625H33.7314ZM24.2906 28.0654L34.0377 26.8927L34.4276 31.1578L24.7362 31.8069L24.2906 28.0654ZM20.1133 21.9994L26.0799 16.415L29.0528 19.7726L22.39 24.659L20.1133 21.9994ZM13.0745 17.7413L14.6758 10L18.7 11.0261L16.4233 18.7046L13.0745 17.7413Z" fill="black"/>
</svg>
