<svg width="90" height="90" viewBox="0 0 90 90" fill="none" xmlns="http://www.w3.org/2000/svg">
<path fill-rule="evenodd" clip-rule="evenodd" d="M72.343 56.5307L65.2898 53.1538V45.4654L72.379 42.4917L89.2971 47.5686L90 49.2162L72.343 56.5307ZM58.8854 56.4197L56.3141 56.3145C55.509 60.1821 54.1813 61.2045 49.345 61.4557L49.1888 64.0789C49.1888 64.0789 50.6968 64.8384 50.3303 67L41.1203 66.7838L42.3699 55.7829L36.6745 55.555C36.5003 58.9727 36.3861 64.0497 36.3861 64.0497C36.3861 64.0497 31.9944 66.0652 28.3296 63.9153L29.9037 55.2863L25.572 55.111L22.6943 53.7439C12.1085 53.8374 8.05319 55.3973 8.05319 55.3973L3.05468 58.3184L1.18023 57.9153L1 42.0127L3.09673 41.4284L8.35959 44.9338C8.35959 44.9338 13.4362 46.149 22.5801 46.26L25.3918 44.8169L29.9998 44.5073L30.8409 41.2181H33.6105L33.995 37.3038H36.5664L37.1671 41.2006H41.4207L42.0215 43.7478L50.3063 43.1402L50.7568 41.0078L55.5631 40.6631L56.0918 37H59.1798L59.3 44.7293C61.4027 44.5774 62.6463 44.4781 62.6463 44.4781V54.2756L60.2853 54.2171L58.8854 56.4197ZM49.7055 56.0516L49.5553 58.5287C52.2288 58.4002 52.8235 57.9094 53.16 56.1918L49.7055 56.0516Z" fill="black"/>
</svg>
