<svg width="90" height="90" viewBox="0 0 90 90" fill="none" xmlns="http://www.w3.org/2000/svg">
<path fill-rule="evenodd" clip-rule="evenodd" d="M39.0716 24.8855L43.4333 24L46.4153 32.9791L38.1904 33.7849L39.0716 24.8855ZM57.1505 39.2132L62.2955 32.129L66.6305 34.6085L64.0669 42.5781C66.9857 44.4719 69.5393 46.8713 71.6064 49.6622L83.6856 45.3232L86 49.7508L75.9948 58.4908C76.7365 60.9341 77.1964 63.4533 77.3656 66L14.8241 65.5749C15.5007 58.0746 18.1533 52.0885 22.0254 47.599L13.7204 35.2903L17.7883 31.9254L28.924 41.7811C37.2736 36.7603 47.9375 35.981 57.1505 39.2132ZM11.6463 60.8374L4 56.7198L5.00586 52.3985L14.5126 53.4611L11.6463 60.8374Z" fill="black"/>
</svg>
