<svg width="90" height="90" viewBox="0 0 90 90" fill="none" xmlns="http://www.w3.org/2000/svg">
<path fill-rule="evenodd" clip-rule="evenodd" d="M66.1328 34.5756C69.4069 29.768 65.9255 20.8193 60.1708 19.9046L59.456 25.3149L55.1668 23.5848C54.6835 25.1938 54.4709 26.8708 54.5377 28.5484L50.2485 29.4276L43.9433 22.3368L49.0046 20.0606L43.3857 13.2392L51.3637 12.4521L48.2326 3L61.2146 9.7505L60.3639 4.07781C70.0718 4.38981 83.0037 24.9178 68.4991 38.2345L66.1328 34.5756ZM44.1435 46.1621L54.3018 37.5041L53.5869 36.795L57.2899 33.0298L65.8755 40.8935L61.765 44.7793L60.8643 43.893L51.9785 54.2456C51.9785 54.2456 50.2413 64.343 45.7305 68.8244C41.2197 73.3059 30.6682 83.6656 28.5737 85.729C26.4791 87.7925 24.0414 87.1472 22.0827 85.1972L13.2541 76.4897C11.2238 74.4759 9.92278 72.2706 12.2104 70.0086C14.4979 67.7466 25.4497 56.5927 29.5316 52.5367C34.4213 47.6795 44.1435 46.1621 44.1435 46.1621Z" fill="black"/>
</svg>
