<svg width="90" height="90" viewBox="0 0 90 90" fill="none" xmlns="http://www.w3.org/2000/svg">
<path fill-rule="evenodd" clip-rule="evenodd" d="M85.6547 42.0994C85.6547 42.0994 80.6173 38.617 74.8746 38.2935C69.132 37.97 52.093 37.8177 47.383 37.8177C42.6731 37.8177 41.8482 28.9372 41.8482 28.9372C41.8482 28.9372 70.5299 27.5735 74.3709 27.0723C79.5972 26.3936 84.3134 23 84.3134 23C91.5988 26.1462 91.7058 39.1435 85.6547 42.0994ZM84.326 28.969C81.2154 28.969 81.0643 36.8916 84.3827 36.8916C87.4114 36.8916 87.4303 28.969 84.326 28.969ZM37.5853 37.1454L38.0701 35.6357L41.1115 35.5596C41.1115 35.5596 41.6782 39.9998 47.2319 39.9998C53.6861 39.9998 73.0486 40.2218 73.0486 40.2218L72.9982 45.1695C72.4157 46.06 71.6309 46.7978 70.7089 47.3217C69.7868 47.8457 68.7541 48.1408 67.6963 48.1826C63.7168 48.3982 57.483 48.6329 51.4004 48.8169C50.4936 61.3828 36.6974 63.1716 30.5644 50.7579C30.8946 50.4068 31.2573 50.0882 31.6475 49.8064C26.9312 51.6206 22.2023 57.3612 18.8902 65.7152C9.97405 67.504 0.25187 60.6406 0 51.4747C12.9524 46.9964 19.2743 37.3927 26.3204 37.3927H28.7069L26.1126 28.6328L29.1791 26.8313L38.2024 30.1742L38.3283 32.87L34.758 34.4114L35.1359 37.2342L37.5853 37.1454ZM45.5444 49.0072C41.7663 49.1087 38.4102 49.1784 36.1433 49.2038C38.215 54.494 45.727 55.2362 45.5444 49.0072Z" fill="black"/>
</svg>
