<svg width="90" height="90" viewBox="0 0 90 90" fill="none" xmlns="http://www.w3.org/2000/svg">
<path fill-rule="evenodd" clip-rule="evenodd" d="M9.76138 33.7972L12.5006 24.8555L67.8399 24.7059L70.6059 21H76.4593V24.7059H81V33.0628L9.76138 33.7972ZM79.0712 39.5022V56.5016L44.9152 56.9436L43.7566 53.9993L31.3667 54.0673L30.0272 61.3566C32.7061 62.1658 33.6371 65.4705 33.6371 67.6532L10.8664 68C10.8664 68 13.0564 58.6571 14.5499 51.0754C16.184 42.8001 8 39.5158 8 39.5158L8.80367 36.9455H80.6919L79.0712 39.5022ZM33.5299 42.4601L32.4851 48.0223C33.3109 48.2966 34.1747 48.4344 35.0435 48.4303C40.9371 48.4303 41.3523 47.5599 43.194 42.4737L33.5299 42.4601ZM50.1056 42.4601L48.8599 46.0979H54.278L55.4969 42.4873L50.1056 42.4601ZM59.9505 42.4601L58.745 46.0435H64.0091L65.2079 42.4941L59.9505 42.4601ZM69.6616 42.4601L68.4694 45.9823H73.7737L75.1131 42.4873L69.6616 42.4601Z" fill="black"/>
</svg>
