<svg width="90" height="90" viewBox="0 0 90 90" fill="none" xmlns="http://www.w3.org/2000/svg">
<path d="M44.5 11C63.0016 11 78 25.9984 78 44.5C78 63.0016 63.0016 78 44.5 78C25.9984 78 11 63.0016 11 44.5C11 25.9984 25.9984 11 44.5 11ZM42.0024 25.0084L41.6801 25.3919V30.3179L33.0702 28.3185V21.9359H30.3243V30.4996L31.3862 30.7464L41.6801 33.1367V35.0503C37.2158 35.7276 33.7003 39.293 33.0975 43.7813H24.5928L19.1101 38.2992L17.1686 40.2406L23.053 46.1256L23.4552 46.5272H28.0058L25.97 56.0902H20.5297V58.8361H28.193L28.4241 57.749L30.8139 46.5272H33.0975C33.7001 51.0157 37.2157 54.581 41.6801 55.2583V59.8803L36.7235 70.2697L37.9629 70.8607L39.2018 71.4516L44.2925 60.7818L44.426 60.5013V59.6448L53.473 61.331V68.9825H56.2189V59.05L55.0975 58.8409L44.426 56.8517V55.304C49.2889 54.7351 53.1083 50.754 53.4247 45.8183H63.2987L72.5692 51.7557L73.3095 50.5994L74.0503 49.4432L64.441 43.289L64.1026 43.0723H60.932L62.2593 34.389H67.6315V31.6431H59.9012L59.7226 32.8084L58.1539 43.0723H53.2338C52.3513 38.8087 48.8133 35.5172 44.426 35.0041V26.3931L51.0902 18.474L50.0395 17.5902L48.9894 16.7063L42.0024 25.0084ZM62.8975 56.582C61.5327 56.582 60.4262 57.6884 60.4262 59.0533C60.4262 60.4182 61.5327 61.5246 62.8975 61.5246C64.2624 61.5246 65.3689 60.4182 65.3689 59.0533C65.3689 57.6884 64.2624 56.582 62.8975 56.582ZM43.2263 38.229C47.0509 38.2291 50.1515 41.3297 50.1516 45.1543C50.1516 48.979 47.0509 52.0795 43.2263 52.0797C39.4015 52.0796 36.3009 48.9791 36.3009 45.1543C36.3011 41.3296 39.4016 38.229 43.2263 38.229ZM27.2008 34.0656C25.8359 34.0656 24.7295 35.172 24.7295 36.5369C24.7295 37.9018 25.8359 39.0082 27.2008 39.0082C28.5657 39.0082 29.6721 37.9018 29.6721 36.5369C29.6721 35.172 28.5657 34.0656 27.2008 34.0656ZM56.3074 24.1803C54.9425 24.1803 53.8361 25.2868 53.8361 26.6516C53.8361 28.0165 54.9425 29.123 56.3074 29.123C57.6723 29.123 58.7787 28.0165 58.7787 26.6516C58.7787 25.2868 57.6723 24.1803 56.3074 24.1803Z" fill="black"/>
</svg>
