<svg width="90" height="90" viewBox="0 0 90 90" fill="none" xmlns="http://www.w3.org/2000/svg">
<path fill-rule="evenodd" clip-rule="evenodd" d="M67.2931 41.3739L66.9564 37.9431L64.5091 37.7989C64.5091 42.2632 62.0318 46.3549 57.7205 46.3549H48.3583C48.1839 54.268 39.1464 55.4877 34.9192 48.8965C32.5055 50.5879 30.5239 52.8232 29.1347 55.4216L23.7231 50.5428L4.64988 60L1 35.2694L25.2564 34.969L28.8642 38.7663C28.8642 38.7663 32.5862 35.5157 40.7759 34.1098L41.3291 31.7545L47.8772 31.0875L49.2843 33.4909C58.3398 33.4909 72.5605 33.4008 81.3094 33.3407L81.9768 30H86.4024L86.5106 33.3046H89L88.7655 40.9834L67.2931 41.3739ZM44.3837 46.3909H42.9947C41.5665 46.3888 40.1467 46.6077 38.7856 47.0399C40.2768 50.5968 45.0331 50.1943 44.3837 46.3909Z" fill="black"/>
</svg>
