<svg width="90" height="90" viewBox="0 0 90 90" fill="none" xmlns="http://www.w3.org/2000/svg">
<path fill-rule="evenodd" clip-rule="evenodd" d="M80.1634 31H87.0165L87.1189 34.3745H89.8795L90 43.9017H83.8702L83.9606 45.8071L53.3659 46.1452L53.1791 34.522L79.5004 34.4175L80.1634 31ZM63.3773 37.5645L57.0125 37.6875V40.2322L63.6425 40.1768L63.3773 37.5645ZM73.5695 37.3617L67.6868 37.4785L67.6266 40.14L73.8649 40.0846L73.5695 37.3617ZM77.8429 40.0539L84.925 39.9924L84.8647 37.1343L77.8971 37.2757L77.8429 40.0539ZM30.0522 52.6974L28.244 56.3853L22.9159 52.0827L1.95285 57L0 36.8208L28.1235 38.5603L38.9727 34.5466L49.4602 34.5035L49.9304 46.182L42.4565 46.2619C39.6417 52.3716 38.9124 52.6974 30.0522 52.6974ZM33.1503 46.3664L31.7399 49.2307C36.4231 49.2307 37.2006 48.948 38.4061 46.2988L33.1503 46.3664Z" fill="black"/>
</svg>
