<svg width="90" height="90" viewBox="0 0 90 90" fill="none" xmlns="http://www.w3.org/2000/svg">
<path fill-rule="evenodd" clip-rule="evenodd" d="M58.4802 36.4687H90V42.8278L58.5473 42.9081L58.4802 36.4687ZM52.0407 34.3984V36.5243L55.8067 36.4749V45.7879L49.0926 49.1374L48.8423 61.7258L37.0682 61.973L36.9705 58.9634H30.9278L30.1831 64L21.6928 63.5118L23.8779 49.9779L27.2472 47.3514L27.1984 36.8457H29.0295L29.1394 34.3057L26.4171 32.7793L26.3316 26.7169L60.0793 26V30.227L55.9532 34.3861L52.0407 34.3984ZM36.7813 52.5734L31.8983 52.6661L31.4954 55.3914L36.9095 55.8488L36.7813 52.5734ZM11.5605 49.329L10.4374 54.551L1.67243 58.3887L0 39.8862L17.6094 39.0704L18.4212 42.5002L24.2564 42.6609L24.3357 45.4851L21.2045 48.4638L11.5605 49.329Z" fill="black"/>
</svg>
