<svg width="74" height="90" viewBox="0 0 74 90" fill="none" xmlns="http://www.w3.org/2000/svg">
<path fill-rule="evenodd" clip-rule="evenodd" d="M49 84.1L73.17 79.69L74 87L50.18 89.74L49 84.1ZM11.77 3.25004L63.77 2.04004L64.49 7.92004L10.9 9.11004L11.77 3.25004ZM22.82 89.74L0 86.29L1 79L24.35 83.1L22.82 89.74Z" fill="black"/>
<path d="M72.4698 74.3901L47.8598 79.1701L42.7915 56.0001L69.3888 48.8711L72.4698 74.3901Z" fill="black"/>
<path d="M25.75 77.51L1.75 73.95L5.2158 49.5L30.9463 56L25.75 77.51Z" fill="black"/>
<path d="M39.2002 39.58L35.0002 39.22L32.5168 49.5L6.05518 43.58L10.3602 13.21L65.1402 13.67L68.6202 42.5L41.6982 51L39.2002 39.58Z" fill="black"/>
</svg>
