<svg width="78" height="90" viewBox="0 0 78 90" fill="none" xmlns="http://www.w3.org/2000/svg">
<path d="M70.39 6.5111C65.317 30.7422 71.236 41.956 74.829 44.533V47.756H78V57.1H74.829V69.667H78V78.044H74.829V89H3.1707V78.044H0V69.667H3.1707V56.778H0V47.756H3.1707V45.178C11.7951 41.053 9.7236 17.6815 7.6098 6.5111L22.1951 2C23.0407 7.1556 27.6488 17.3378 39.3171 16.8222C50.9854 16.3067 55.1707 6.7259 55.8049 2L70.39 6.5111ZM15.8537 72.889V78.617L61.5122 79.333V72.889H15.8537ZM15.8537 65.156H61.5122V59.427L15.8537 58.711V65.156ZM15.8537 45.25V50.978H61.5122V44.533L15.8537 45.25Z" fill="black"/>
</svg>
