<svg width="83" height="90" viewBox="0 0 83 90" fill="none" xmlns="http://www.w3.org/2000/svg">
<path d="M13.3408 42.438C18.7952 44.913 27.641 50.739 33.6953 63.68H48.8711C54.926 50.748 63.7605 44.92 69.212 42.443V16H73.731V41.264C78.884 44.962 82.564 50.89 82.564 57.257C82.564 68.089 73.751 76.898 62.9229 76.898C56.2381 76.898 50.65 72.534 47.3496 68.09H35.2139C31.9063 72.533 26.3146 76.898 19.6416 76.898C8.821 76.898 0.0118 68.089 0 57.257C0 50.895 3.6718 44.971 8.8223 41.271V16H13.3408V42.438Z" fill="black"/>
</svg>
