<svg width="72" height="90" viewBox="0 0 72 90" fill="none" xmlns="http://www.w3.org/2000/svg">
<path fill-rule="evenodd" clip-rule="evenodd" d="M69.9998 87.6699L50.7998 89.8499L49.5498 84.1699L45.9398 81.3199L37.8798 39.9999L34.0598 39.5999L24.9698 80.5999L21.2498 83.5999L19.8098 89.5999L1.99977 87.4699L2.89977 80.2999L0.259766 76.0599L9.17977 12.9999L13.6098 8.92988L14.7798 2.62988L58.9298 2.99988L59.6298 8.71988L63.7598 12.8199L65.1398 24.1399L59.3998 25.9999L58.8798 30.6299L65.6698 28.5199L66.1998 32.8599L58.3498 35.4399L57.8298 40.0699L66.7398 37.2899L67.2598 41.5999L57.2598 44.8799L56.7398 49.4799L67.7398 46.0399L71.6398 78.1899L69.3098 82.2899L69.9998 87.6699ZM28.0698 8.15989L26.2298 29.9999L30.3398 30.2699L32.5298 9.08988L28.0698 8.15989ZM44.2598 8.67988L39.7098 8.61988L40.9998 30.8999L45.1698 30.7199L44.2598 8.67988Z" fill="black"/>
</svg>
