<svg width="77" height="90" viewBox="0 0 77 90" fill="none" xmlns="http://www.w3.org/2000/svg">
<path fill-rule="evenodd" clip-rule="evenodd" d="M44.847 11.9997L46.057 2.71969L76.927 6.37968C76.927 6.37968 76.457 10.8897 75.857 16.7597L44.847 11.9997ZM73.957 35.3997C63.497 40.0697 57.737 51.4597 65.287 65.5797C60.527 68.9997 53.497 73.9997 42.427 81.8997L23.357 56.7997C31.867 49.7997 40.817 42.6997 40.817 42.6997L43.987 18.4197L75.357 21.7097C74.857 26.4197 74.357 31.3897 73.957 35.3497V35.3997ZM16.187 56.2997C8.58699 62.5497 7.82699 72.4697 11.607 79.8697C0.716988 76.7797 -4.81301 61.8697 5.38699 53.5197C14.707 45.7997 26.357 36.9997 26.357 36.9997L30.997 1.67969L40.327 2.67969L36.147 39.1297C36.147 39.1297 27.237 47.1497 16.187 56.2497V56.2997ZM36.797 85.1997C19.987 91.9297 7.03699 70.5997 19.857 59.7297L36.797 85.1997ZM69.437 62.5297L69.267 62.6597C64.267 52.7697 67.267 45.4897 73.557 41.5797C79.717 49.1897 75.527 57.9197 69.437 62.4797V62.5297Z" fill="black"/>
</svg>
